<?xml version="1.0" encoding="UTF-8" standalone="no"?>
<!-- Created with Inkscape (http://www.inkscape.org/) -->

<svg
   width="120"
   height="120"
   viewBox="0 0 31.75 31.75"
   version="1.1"
   id="svg1"
   inkscape:version="1.4-beta (f21c272752, 2024-04-22, custom)"
   sodipodi:docname="player.svg"
   xmlns:inkscape="http://www.inkscape.org/namespaces/inkscape"
   xmlns:sodipodi="http://sodipodi.sourceforge.net/DTD/sodipodi-0.dtd"
   xmlns="http://www.w3.org/2000/svg"
   xmlns:svg="http://www.w3.org/2000/svg">
  <sodipodi:namedview
     id="namedview1"
     pagecolor="#505050"
     bordercolor="#eeeeee"
     borderopacity="1"
     inkscape:showpageshadow="0"
     inkscape:pageopacity="0"
     inkscape:pagecheckerboard="0"
     inkscape:deskcolor="#505050"
     inkscape:document-units="px"
     inkscape:zoom="6.0364197"
     inkscape:cx="52.680234"
     inkscape:cy="61.377442"
     inkscape:window-width="1920"
     inkscape:window-height="1050"
     inkscape:window-x="0"
     inkscape:window-y="0"
     inkscape:window-maximized="1"
     inkscape:current-layer="layer1" />
  <defs
     id="defs1" />
  <g
     inkscape:label="Layer 1"
     inkscape:groupmode="layer"
     id="layer1">
    <path
       id="rect1"
       style="fill:#ffffff;fill-opacity:1;stroke:none;stroke-width:0.79375;stroke-linecap:butt;stroke-linejoin:round;stroke-dasharray:none;stroke-opacity:1"
       d="M 0.396875 0.396875 L 0.396875 31.353125 L 31.353125 31.353125 L 31.353125 0.396875 L 0.396875 0.396875 z M 6.306075 6.306075 L 25.443925 6.306075 L 25.443925 25.443925 L 6.306075 25.443925 L 6.306075 6.306075 z M 11.126969 11.126969 L 11.126969 20.623031 L 20.623031 20.623031 L 20.623031 11.126969 L 11.126969 11.126969 z " />
    <rect
       style="fill:#b7b7b7;fill-opacity:1;stroke:none;stroke-width:0.667544;stroke-linejoin:round;stroke-opacity:1"
       id="rect2"
       width="30.956249"
       height="3.1408896"
       x="0.39687499"
       y="28.212234" />
    <rect
       style="fill:#b7b7b7;fill-opacity:1;stroke:none;stroke-width:0.369724;stroke-linejoin:round;stroke-opacity:1"
       id="rect3"
       width="9.4960613"
       height="3.1408896"
       x="11.126969"
       y="17.482141" />
    <path
       id="path2"
       style="fill:none;fill-opacity:1;stroke:#000000;stroke-width:0.79375;stroke-linecap:butt;stroke-linejoin:round;stroke-dasharray:none;stroke-opacity:1"
       d="M 0.396875 0.396875 L 0.396875 31.353125 L 31.353125 31.353125 L 31.353125 0.396875 L 0.396875 0.396875 z M 6.306075 6.306075 L 25.443925 6.306075 L 25.443925 25.443925 L 6.306075 25.443925 L 6.306075 6.306075 z M 11.126969 11.126969 L 11.126969 20.623031 L 20.623031 20.623031 L 20.623031 11.126969 L 11.126969 11.126969 z " />
  </g>
</svg>
